<?xml version="1.0" standalone="no"?>
<!DOCTYPE svg PUBLIC "-//W3C//DTD SVG 20010904//EN"
 "http://www.w3.org/TR/2001/REC-SVG-20010904/DTD/svg10.dtd">
<svg version="1.0" xmlns="http://www.w3.org/2000/svg"
 width="68.000000pt" height="24.000000pt" viewBox="0 0 68.000000 24.000000"
 preserveAspectRatio="xMidYMid meet">
<metadata>
Created by potrace 1.16, written by Peter Selinger 2001-2019
</metadata>
<g transform="translate(0.000000,24.000000) scale(0.100000,-0.100000)"
fill="#000000" stroke="none">
<path d="M9 205 c-1 -45 -1 -159 0 -185 1 -11 7 -20 14 -20 11 0 14 27 14 120
0 94 -3 120 -14 120 -8 0 -13 -13 -14 -35z"/>
<path d="M289 224 c-1 -5 -2 -15 -3 -22 0 -7 -8 -17 -16 -22 -13 -9 -13 -11 0
-19 10 -7 15 -29 16 -71 1 -33 7 -67 14 -75 16 -19 50 -19 50 0 0 8 -6 15 -14
15 -18 0 -25 24 -21 75 3 54 3 55 16 52 6 -1 14 4 16 11 3 7 -4 12 -17 12 -15
0 -20 5 -17 14 3 8 -1 20 -9 26 -8 7 -15 9 -15 4z"/>
<path d="M83 90 c0 -69 3 -90 14 -90 9 0 13 17 13 63 0 49 4 68 18 80 42 38
70 5 68 -81 -1 -51 1 -62 13 -60 23 5 19 133 -5 159 -19 21 -46 24 -75 9 -13
-7 -19 -7 -19 0 0 5 -6 10 -13 10 -10 0 -13 -23 -14 -90z"/>
<path d="M416 159 c-56 -44 -20 -159 49 -159 34 0 65 17 65 35 0 18 -1 18 -35
1 -31 -16 -75 -4 -75 21 0 7 -1 16 -2 21 -2 4 24 7 57 7 54 0 60 2 63 22 4 29
-39 73 -71 73 -13 0 -36 -9 -51 -21z m86 -23 c15 -21 8 -26 -37 -26 -50 0 -62
19 -22 37 23 11 47 6 59 -11z"/>
<path d="M589 178 c-1 -2 -2 -42 -3 -90 -1 -63 2 -88 11 -88 8 0 13 23 15 67
3 63 5 69 31 81 27 13 37 32 16 32 -6 0 -19 -5 -30 -10 -13 -7 -19 -7 -19 0 0
8 -17 15 -21 8z"/>
</g>
</svg>
