<?xml version="1.0" standalone="no"?>
<!DOCTYPE svg PUBLIC "-//W3C//DTD SVG 20010904//EN"
 "http://www.w3.org/TR/2001/REC-SVG-20010904/DTD/svg10.dtd">
<svg version="1.0" xmlns="http://www.w3.org/2000/svg"
 width="249.000000pt" height="25.000000pt" viewBox="0 0 249.000000 25.000000"
 preserveAspectRatio="xMidYMid meet">
<metadata>
Created by potrace 1.16, written by Peter Selinger 2001-2019
</metadata>
<g transform="translate(0.000000,25.000000) scale(0.100000,-0.100000)"
fill="#000000" stroke="none">
<path d="M214 125 c-1 -97 2 -125 13 -125 10 0 13 28 13 125 0 96 -3 125 -13
125 -10 0 -13 -29 -13 -125z"/>
<path d="M974 125 c-1 -100 1 -125 12 -125 9 0 14 11 14 28 0 26 15 52 31 52
3 0 18 -18 33 -40 14 -22 34 -40 42 -40 15 0 15 2 1 22 -9 13 -25 37 -36 55
l-20 32 29 33 c43 49 15 47 -36 -3 l-44 -43 0 77 c0 56 -4 77 -13 77 -9 0 -13
-31 -13 -125z"/>
<path d="M9 218 c-5 -166 -3 -218 7 -218 16 0 22 18 18 57 -1 18 1 33 4 34 4
1 18 2 32 3 53 5 77 16 88 41 17 38 15 53 -13 80 -20 21 -34 25 -80 25 -50 0
-55 -2 -56 -22z m118 -20 c20 -16 16 -56 -7 -68 -12 -6 -35 -10 -52 -8 -30 3
-32 6 -34 45 -1 32 2 43 15 46 23 5 63 -2 78 -15z"/>
<path d="M720 151 c0 -103 -5 -121 -31 -121 -10 0 -19 -7 -19 -15 0 -22 34
-18 55 5 15 17 19 39 20 120 1 77 -1 100 -12 100 -10 0 -13 -22 -13 -89z"/>
<path d="M1820 220 c-21 -21 -26 -55 -12 -78 5 -7 31 -21 58 -31 63 -24 77
-46 46 -71 -27 -22 -57 -19 -89 11 -27 26 -40 20 -23 -11 34 -64 153 -45 153
25 0 33 -21 51 -75 66 -49 13 -66 41 -39 68 21 21 69 18 78 -5 6 -16 33 -19
33 -5 0 18 -53 51 -81 51 -16 0 -38 -9 -49 -20z"/>
<path d="M1460 205 c0 -7 -7 -18 -16 -23 -9 -5 -14 -15 -10 -21 4 -6 12 -9 17
-6 5 4 9 -21 9 -59 0 -69 14 -96 51 -96 25 0 25 17 -1 25 -20 6 -22 12 -22 60
0 58 2 76 10 71 4 -2 14 -1 22 4 11 7 8 11 -13 19 -18 7 -25 15 -21 26 4 10 0
15 -10 15 -9 0 -16 -7 -16 -15z"/>
<path d="M280 112 c0 -55 4 -73 20 -90 23 -24 50 -28 82 -11 15 8 19 8 14 0
-4 -6 0 -11 8 -11 13 0 16 15 16 91 0 68 -3 90 -12 87 -8 -3 -13 -25 -14 -60
-1 -69 -7 -84 -34 -91 -38 -10 -56 20 -53 91 1 48 -1 62 -13 62 -11 0 -14 -15
-14 -68z"/>
<path d="M476 161 c-27 -29 -12 -59 40 -81 48 -21 54 -34 24 -50 -22 -12 -60
2 -60 21 0 6 -4 7 -10 4 -14 -9 -12 -21 6 -39 37 -37 119 -3 107 44 -4 14 -22
29 -49 41 -45 19 -57 42 -28 53 9 4 27 0 40 -9 27 -17 34 -19 34 -6 0 39 -75
54 -104 22z"/>
<path d="M828 173 c-9 -2 -19 -10 -22 -18 -6 -17 13 -32 23 -18 10 16 35 21
54 11 23 -12 22 -38 -3 -38 -11 0 -36 -7 -55 -14 -29 -13 -35 -20 -35 -46 0
-40 37 -59 81 -43 16 6 29 7 29 2 0 -5 7 -9 15 -9 12 0 15 14 15 70 0 95 -28
123 -102 103z m72 -103 c0 -29 -43 -54 -69 -41 -36 20 -6 54 50 58 13 1 19 -5
19 -17z"/>
<path d="M1179 161 c-31 -25 -19 -37 18 -18 20 11 34 12 46 6 23 -14 21 -39
-3 -39 -11 0 -36 -7 -55 -14 -29 -13 -35 -20 -35 -46 0 -40 37 -59 81 -43 16
6 29 7 29 2 0 -5 7 -9 15 -9 12 0 15 14 15 70 0 57 -4 74 -20 90 -25 25 -61
26 -91 1z m81 -91 c0 -24 -41 -53 -63 -44 -36 13 -26 46 18 57 38 9 45 7 45
-13z"/>
<path d="M1334 88 c1 -64 4 -88 13 -88 9 0 13 20 13 71 0 69 1 71 30 82 42 16
37 25 -13 25 l-43 -1 0 -89z"/>
<path d="M1589 161 c-31 -25 -20 -36 16 -17 20 11 34 12 47 5 24 -13 23 -39
-2 -39 -11 0 -36 -7 -55 -14 -29 -13 -35 -20 -35 -46 0 -40 37 -59 81 -43 16
6 29 7 29 2 0 -5 7 -9 15 -9 12 0 15 14 15 70 0 57 -4 74 -20 90 -25 25 -61
26 -91 1z m79 -94 c-2 -12 -16 -28 -31 -37 -26 -14 -29 -14 -42 4 -16 22 -12
34 17 45 41 15 59 11 56 -12z"/>
<path d="M2029 161 c-31 -25 -20 -36 16 -17 20 11 34 12 47 5 24 -13 23 -39
-2 -39 -11 0 -36 -7 -55 -14 -29 -13 -35 -20 -35 -46 0 -40 37 -59 81 -43 16
6 29 7 29 2 0 -5 7 -9 15 -9 12 0 15 14 15 70 0 57 -4 74 -20 90 -25 25 -61
26 -91 1z m81 -91 c0 -40 -70 -61 -84 -25 -6 17 11 32 44 38 14 2 28 5 33 6 4
0 7 -8 7 -19z"/>
<path d="M2183 90 c0 -67 4 -90 14 -90 9 0 13 18 13 63 0 73 18 101 57 87 27
-11 35 -37 32 -97 -2 -30 1 -48 9 -51 12 -4 15 16 12 98 -1 32 -7 50 -22 63
-23 20 -59 22 -76 5 -9 -9 -12 -9 -12 0 0 7 -6 12 -14 12 -11 0 -14 -20 -13
-90z"/>
<path d="M2376 161 c-27 -30 -16 -54 37 -79 51 -25 57 -36 27 -52 -21 -11 -55
0 -62 20 -1 5 -9 6 -16 2 -19 -13 23 -52 56 -52 45 0 67 24 63 68 0 7 -21 21
-46 32 -46 20 -58 43 -29 54 9 4 27 0 40 -9 27 -17 34 -19 34 -6 0 39 -75 54
-104 22z"/>
</g>
</svg>
